<svg xmlns="http://www.w3.org/2000/svg">
  <symbol id="logo" viewBox="0 0 48 48">
    <path d="M8 8h32v32H8z" fill="none" stroke="currentColor" stroke-width="3.4" />
    <path d="M16 15h16v18l-8-5-8 5z" fill="currentColor" />
    <path d="M33 8v10h7" fill="none" stroke="currentColor" stroke-width="3.4" />
    <path d="M8 30h10v10" fill="none" stroke="currentColor" stroke-width="3.4" />
  </symbol>
  <symbol id="palette" viewBox="0 0 24 24">
    <path
      d="M12 3.5a8.5 8.5 0 0 0 0 17h1.2c1.1 0 1.6-1.3.9-2.1-.6-.7-.1-1.8.9-1.8h1.5A4.5 4.5 0 0 0 21 12c0-4.7-4-8.5-9-8.5Z"
      fill="none"
      stroke="currentColor"
      stroke-linecap="round"
      stroke-linejoin="round"
      stroke-width="1.8"
    />
    <path
      d="M7.7 11.2h.1M9.4 7.8h.1M13 7.1h.1M16.2 9.3h.1"
      fill="none"
      stroke="currentColor"
      stroke-linecap="round"
      stroke-width="2.8"
    />
  </symbol>
  <symbol id="github" viewBox="0 0 24 24">
    <path
      d="M12 2.8a9.2 9.2 0 0 0-2.9 17.9c.5.1.7-.2.7-.5v-1.8c-2.8.6-3.4-1.2-3.4-1.2-.5-1.1-1.1-1.4-1.1-1.4-.9-.6.1-.6.1-.6 1 .1 1.6 1.1 1.6 1.1.9 1.5 2.4 1.1 2.9.8.1-.7.4-1.1.7-1.3-2.2-.3-4.6-1.1-4.6-4.9 0-1.1.4-2 1.1-2.7-.1-.3-.5-1.3.1-2.7 0 0 .9-.3 2.8 1a9.7 9.7 0 0 1 5.1 0c1.9-1.3 2.8-1 2.8-1 .6 1.4.2 2.4.1 2.7.7.7 1.1 1.6 1.1 2.7 0 3.8-2.3 4.6-4.6 4.9.4.3.7.9.7 1.8v2.6c0 .3.2.6.7.5A9.2 9.2 0 0 0 12 2.8Z"
      fill="currentColor"
    />
  </symbol>
</svg>
